<?xml version="1.0" standalone="no"?>
<svg viewBox="0 0 200 200" xmlns="http://www.w3.org/2000/svg">
  <path fill="#FF0066" d="M42.9,-77.9C54,-67.8,60.3,-53.2,65,-39.4C69.6,-25.7,72.4,-12.8,74.7,1.3C77,15.5,78.6,30.9,74.2,44.9C69.7,58.8,59,71.3,45.6,78.9C32.3,86.5,16.1,89.1,2.3,85.2C-11.6,81.3,-23.2,70.8,-34,61.7C-44.7,52.6,-54.6,44.9,-64.1,34.9C-73.5,24.8,-82.5,12.4,-81.9,0.3C-81.3,-11.7,-71.2,-23.5,-63.1,-36C-55.1,-48.5,-49.2,-61.7,-39,-72.3C-28.8,-82.9,-14.4,-90.9,0.7,-92.2C15.9,-93.4,31.8,-88,42.9,-77.9Z" transform="translate(100 100)" />
</svg>
