<?xml version="1.0" standalone="no"?>
<svg viewBox="0 0 200 200" xmlns="http://www.w3.org/2000/svg">
  <path fill="#FF0066" d="M31,-47.6C45.9,-38.8,67.6,-39.8,73.7,-32C79.9,-24.2,70.5,-7.7,65.4,7.5C60.3,22.8,59.5,36.9,53.1,48.2C46.6,59.5,34.6,68,20.8,73.2C6.9,78.5,-8.6,80.3,-22.2,76.1C-35.7,71.8,-47.3,61.5,-57.6,49.8C-67.9,38.2,-76.8,25.2,-79.9,10.8C-83.1,-3.6,-80.5,-19.6,-70.4,-28.3C-60.4,-36.9,-42.9,-38.2,-29.9,-47.9C-16.9,-57.6,-8.5,-75.6,-0.2,-75.3C8.1,-75,16.2,-56.4,31,-47.6Z" transform="translate(100 100)" />
</svg>
